<?xml version="1.0" standalone="no"?>
<!DOCTYPE svg PUBLIC "-//W3C//DTD SVG 20010904//EN"
 "http://www.w3.org/TR/2001/REC-SVG-20010904/DTD/svg10.dtd">
<svg version="1.0" xmlns="http://www.w3.org/2000/svg"
 width="304.000000pt" height="304.000000pt" viewBox="0 0 304.000000 304.000000"
 preserveAspectRatio="xMidYMid meet">
<metadata>
Created by potrace 1.11, written by Peter Selinger 2001-2013
</metadata>
<g transform="translate(0.000000,304.000000) scale(0.100000,-0.100000)"
fill="#000000" stroke="none">
<path d="M1457 3026 c-101 -55 -121 -90 -292 -506 -12 -30 -100 -237 -194
-460 -95 -223 -195 -459 -223 -525 -28 -66 -58 -138 -68 -160 -10 -22 -43
-101 -75 -175 -57 -135 -88 -207 -105 -245 -5 -11 -39 -92 -76 -180 -36 -88
-74 -178 -84 -200 -79 -179 -193 -455 -197 -475 -6 -36 5 -68 29 -81 14 -8
117 -13 310 -15 273 -4 291 -3 328 16 60 31 110 92 139 170 7 19 17 44 21 55
9 21 48 114 120 290 23 55 45 109 50 120 5 11 32 76 60 145 28 69 57 139 64
155 75 170 236 576 232 583 -3 5 -33 20 -67 32 -33 13 -63 29 -66 37 -7 19 8
34 124 124 204 157 275 209 287 209 22 0 44 -33 52 -80 4 -25 8 -47 9 -50 0
-3 9 -39 18 -80 48 -200 58 -248 60 -285 2 -34 -1 -40 -20 -43 -12 -2 -52 9
-88 24 -78 31 -69 38 -121 -91 -19 -49 -42 -103 -49 -120 -46 -107 -48 -142
-8 -163 15 -8 234 -9 776 -3 63 1 71 4 99 31 49 49 67 0 -302 805 -78 171
-155 337 -170 370 -15 33 -58 125 -95 205 -226 492 -239 516 -317 556 -45 24
-127 28 -161 10z"/>
<path d="M1517 827 c-43 -25 -43 -24 -132 -238 -211 -507 -220 -535 -176 -568
20 -15 87 -17 774 -16 l752 0 45 22 c25 13 56 39 70 60 22 32 25 47 24 117 0
65 -5 92 -26 136 -14 30 -58 132 -98 225 -99 232 -103 239 -147 261 -36 18
-70 19 -545 20 -482 0 -509 -1 -541 -19z"/>
</g>
</svg>
